<?xml version="1.0" standalone="no"?>
<!DOCTYPE svg PUBLIC "-//W3C//DTD SVG 20010904//EN"
 "http://www.w3.org/TR/2001/REC-SVG-20010904/DTD/svg10.dtd">
<svg version="1.0" xmlns="http://www.w3.org/2000/svg"
 width="505.000000pt" height="505.000000pt" viewBox="0 0 505.000000 505.000000"
 preserveAspectRatio="xMidYMid meet">
<metadata>
Created by potrace 1.14, written by Peter Selinger 2001-2017
</metadata>
<g transform="translate(0.000000,505.000000) scale(0.100000,-0.100000)"
fill="#000000" stroke="none">
<path d="M1307 5044 c-2 -2 -51 -8 -155 -20 -24 -2 -59 -11 -79 -19 -20 -9
-49 -18 -66 -21 -16 -2 -39 -10 -51 -16 -11 -7 -26 -13 -32 -14 -17 -3 -176
-95 -199 -115 -11 -10 -41 -37 -66 -61 -56 -52 -49 -48 -100 -53 -44 -3 -100
-15 -114 -23 -5 -4 -16 -7 -23 -8 -23 -4 -103 -44 -168 -85 -65 -41 -144 -121
-171 -174 -9 -16 -19 -32 -23 -35 -3 -3 -18 -34 -32 -70 -26 -65 -26 -68 -24
-320 l1 -255 40 -75 c48 -90 110 -164 190 -227 82 -64 229 -123 314 -127 43
-1 47 -22 12 -64 -14 -17 -37 -47 -51 -66 -27 -38 -66 -62 -115 -70 -17 -2
-30 -5 -30 -6 0 -1 -9 -3 -19 -5 -10 -2 -22 -7 -25 -12 -3 -4 -12 -9 -19 -11
-18 -3 -113 -71 -142 -101 -31 -33 -93 -121 -85 -121 4 0 -3 -13 -14 -29 -12
-16 -21 -36 -21 -44 0 -8 -7 -32 -17 -53 -16 -38 -27 -207 -14 -229 3 -5 7
-18 8 -29 7 -40 51 -134 92 -196 70 -104 211 -198 320 -214 24 -3 45 -7 46 -8
42 -60 93 -124 129 -163 l46 -50 -6 -70 c-12 -130 -9 -212 10 -299 7 -30 -6
-58 -51 -106 -38 -41 -102 -175 -108 -227 -4 -26 -9 -59 -12 -73 -11 -56 9
-199 37 -252 11 -21 17 -38 14 -38 -12 0 65 -100 115 -149 94 -90 174 -131
296 -148 87 -12 192 -3 252 22 18 8 36 14 38 14 17 1 106 54 135 81 52 47 74
60 95 56 11 -3 38 -8 60 -13 60 -13 240 -7 329 11 87 18 143 35 199 62 l36 17
83 -84 c46 -47 101 -99 123 -116 22 -18 50 -40 62 -50 14 -11 24 -34 28 -63 4
-25 12 -51 18 -59 7 -8 11 -17 11 -20 -4 -22 81 -155 118 -184 13 -10 36 -29
52 -42 65 -52 200 -105 288 -110 26 -2 52 -6 58 -10 5 -3 10 -2 10 3 0 5 12 8
28 7 41 -2 168 40 229 77 110 66 225 214 241 310 8 44 37 65 47 34 3 -9 8 -24
12 -33 3 -10 7 -25 9 -33 9 -43 66 -131 120 -186 54 -54 169 -131 207 -138 6
-2 32 -9 57 -16 25 -7 86 -12 135 -12 119 1 124 2 130 13 4 5 16 9 28 9 25 0
111 44 158 80 81 63 189 201 189 242 0 8 3 18 7 22 8 7 12 26 16 70 1 22 14
37 60 68 96 65 267 249 267 288 0 5 5 10 10 10 6 0 10 5 10 10 0 6 12 29 27
53 14 23 26 43 25 45 -1 1 5 19 14 40 8 20 17 44 19 52 2 8 9 29 15 45 14 36
15 42 30 165 14 113 14 102 6 170 -4 30 -9 80 -11 111 -3 30 -12 73 -22 95
-10 21 -18 44 -18 49 -3 31 -20 83 -35 110 -10 18 -24 43 -32 56 -7 13 -15 26
-18 29 -3 3 -12 21 -21 40 -39 85 -233 274 -337 328 -117 60 -162 82 -172 82
-5 0 -18 4 -28 9 -65 33 -175 51 -317 53 -63 1 -191 -12 -225 -22 -19 -6 -46
-14 -60 -17 -56 -12 -91 -25 -185 -74 -42 -21 -81 -39 -87 -39 -11 0 -80 31
-88 39 -13 14 -152 69 -194 77 -16 3 -37 9 -47 14 -10 6 -46 12 -81 15 -35 3
-89 8 -121 11 -31 3 -62 2 -68 -2 -7 -4 -42 -8 -80 -10 -38 -1 -79 -6 -91 -10
-13 -4 -29 -9 -35 -11 -7 -2 -19 -5 -25 -6 -7 -2 -26 -7 -43 -12 -16 -4 -36
-13 -44 -19 -26 -21 -46 -11 -96 49 -27 33 -67 77 -88 98 -36 38 -43 64 -24
95 17 26 20 175 19 822 -1 770 -2 825 -31 900 -11 30 -22 68 -25 84 -8 46 -94
211 -145 279 -83 112 -209 224 -311 278 -25 13 -47 26 -50 29 -8 9 -130 60
-130 55 0 -2 -19 4 -42 14 -24 10 -74 22 -113 26 -123 14 -129 15 -168 18 -21
2 -39 2 -40 1z"/>
</g>
</svg>
